<?xml version="1.0" standalone="no"?>
<!DOCTYPE svg PUBLIC "-//W3C//DTD SVG 20010904//EN"
 "http://www.w3.org/TR/2001/REC-SVG-20010904/DTD/svg10.dtd">
<svg version="1.0" xmlns="http://www.w3.org/2000/svg"
 width="300.000000pt" height="300.000000pt" viewBox="0 0 300.000000 300.000000"
 preserveAspectRatio="xMidYMid meet">
<metadata>
Created by potrace 1.11, written by Peter Selinger 2001-2013
</metadata>
<g transform="translate(0.000000,300.000000) scale(0.100000,-0.100000)"
fill="#000000" stroke="none">
<path d="M1490 2991 c0 -6 -5 -11 -10 -11 -6 0 -22 -12 -35 -26 -15 -16 -29
-23 -37 -18 -7 4 -10 3 -5 -1 4 -5 1 -15 -7 -24 -8 -9 -16 -23 -18 -31 -2 -8
-6 -18 -11 -21 -4 -3 -10 -16 -12 -29 -2 -13 -8 -26 -13 -29 -5 -3 -8 -14 -7
-23 2 -9 -3 -22 -11 -29 -8 -6 -11 -16 -8 -21 3 -5 -2 -18 -11 -28 -11 -12
-13 -20 -5 -25 8 -5 8 -10 0 -20 -7 -8 -9 -19 -5 -25 4 -6 -1 -18 -11 -26 -11
-9 -13 -12 -5 -8 14 7 13 -5 -3 -66 -3 -8 -5 -31 -5 -50 -1 -25 -4 -31 -10
-20 -6 8 -7 18 -5 22 3 4 -2 5 -10 2 -11 -4 -16 0 -16 11 0 9 -18 35 -40 57
-22 22 -37 45 -33 51 3 6 2 7 -4 4 -6 -4 -26 10 -45 31 -47 51 -118 108 -130
104 -5 -1 -7 2 -4 7 4 5 -14 20 -38 32 -25 12 -42 27 -39 32 3 6 1 7 -6 3 -6
-4 -17 -3 -24 2 -24 19 -90 0 -111 -33 -25 -37 -47 -97 -33 -88 9 5 9 3 0 -8
-10 -12 -10 -18 -1 -27 9 -9 9 -12 -1 -12 -10 0 -11 -3 -2 -14 9 -10 9 -16 1
-21 -8 -5 -7 -11 2 -23 11 -13 11 -14 -2 -7 -12 7 -13 6 -4 -6 6 -8 11 -29 12
-48 2 -18 7 -42 13 -52 7 -14 6 -19 -3 -19 -10 0 -10 -2 -1 -8 6 -4 13 -21 15
-37 2 -17 7 -33 11 -36 5 -4 10 -18 10 -32 1 -14 5 -23 10 -20 4 2 7 -3 7 -12
0 -8 5 -24 10 -35 6 -11 15 -29 20 -40 6 -11 10 -26 10 -34 0 -8 6 -16 13 -19
6 -2 9 -7 6 -11 -3 -3 -14 2 -25 12 -24 22 -84 43 -97 35 -6 -3 -7 -1 -3 5 4
7 2 13 -3 13 -6 1 -15 3 -21 4 -5 1 -15 3 -21 4 -5 0 -7 7 -3 14 6 9 4 9 -8
-1 -11 -9 -18 -10 -23 -2 -3 5 -20 10 -36 10 -17 0 -28 4 -25 9 3 5 -8 8 -24
7 -17 -1 -30 1 -30 5 0 4 -8 8 -17 8 -36 0 -178 12 -190 16 -7 3 -13 1 -13 -3
0 -4 -16 -7 -36 -6 -19 1 -33 0 -30 -4 3 -3 -1 -10 -10 -17 -17 -12 -37 -95
-23 -95 5 0 6 -7 3 -15 -7 -18 14 -75 27 -75 5 0 8 -3 7 -7 -3 -10 57 -97 95
-139 15 -18 35 -40 43 -50 9 -11 12 -12 8 -4 -7 13 -5 13 9 1 9 -7 14 -18 10
-24 -3 -5 -2 -7 4 -4 6 4 20 -5 33 -18 13 -13 27 -22 31 -19 5 3 9 -1 9 -8 0
-7 14 -19 30 -26 48 -22 36 -30 -47 -35 -7 0 -13 -3 -13 -6 0 -4 -19 -6 -42
-6 -24 0 -45 -3 -48 -7 -6 -8 -57 -20 -82 -20 -10 1 -18 -3 -18 -9 0 -5 -11
-9 -24 -9 -14 0 -31 -7 -39 -15 -8 -8 -17 -12 -20 -9 -3 3 -17 -2 -31 -11 -14
-10 -26 -14 -26 -10 0 5 -9 0 -20 -10 -11 -10 -20 -14 -20 -9 0 5 -7 0 -15
-10 -8 -11 -15 -17 -15 -13 0 5 -13 -5 -28 -20 -22 -22 -26 -31 -18 -42 8 -11
8 -13 -1 -7 -23 13 -11 -47 17 -84 14 -19 28 -37 33 -38 4 -2 15 -11 24 -20 9
-9 23 -17 32 -19 8 -1 17 -7 19 -12 2 -6 15 -11 28 -11 13 0 24 -5 24 -11 0
-6 7 -8 15 -5 9 3 18 -1 22 -10 5 -13 7 -13 14 -2 7 10 9 10 9 1 0 -7 8 -13
18 -13 10 0 24 -6 31 -12 11 -11 12 -10 6 2 -8 13 -6 13 8 2 9 -8 20 -11 26
-8 5 3 12 0 14 -6 4 -10 6 -10 6 0 1 10 5 9 17 -3 14 -13 19 -14 25 -3 6 8 9
9 9 2 0 -7 14 -14 30 -16 17 -3 30 -1 30 4 0 5 6 6 13 1 6 -4 20 -6 30 -5 9 2
17 -3 17 -10 0 -11 2 -11 9 0 6 10 10 9 14 -7 4 -15 -1 -25 -16 -33 -12 -7
-26 -11 -30 -10 -5 1 -6 -2 -2 -8 3 -5 2 -10 -3 -10 -5 0 -25 -16 -46 -36 -20
-19 -41 -32 -46 -29 -5 3 -7 0 -4 -8 6 -17 -21 -41 -35 -32 -7 4 -8 -1 -4 -11
5 -13 3 -16 -10 -11 -11 4 -14 2 -10 -9 3 -9 -1 -14 -12 -14 -9 0 -13 -4 -10
-10 3 -6 2 -10 -2 -10 -5 0 -17 -14 -27 -30 -9 -17 -22 -27 -28 -24 -6 4 -8 2
-5 -3 4 -6 0 -16 -8 -23 -8 -7 -15 -18 -15 -25 0 -8 -4 -15 -9 -17 -5 -2 -11
-10 -13 -18 -2 -8 -9 -19 -16 -25 -11 -9 -13 -33 -11 -108 0 -9 4 -15 9 -12 5
3 15 -2 23 -10 9 -8 18 -15 22 -15 4 0 14 -7 22 -16 12 -11 18 -12 23 -4 6 9
9 9 15 0 4 -6 13 -9 21 -6 8 3 14 2 14 -2 0 -4 9 -8 19 -8 11 0 17 4 15 8 -3
4 -1 8 5 8 5 0 13 -4 16 -10 4 -6 14 -5 28 4 12 7 34 12 50 11 15 -1 27 2 27
8 0 5 14 7 30 5 16 -3 30 -1 30 4 0 4 3 7 7 7 19 -3 34 2 29 10 -3 4 6 6 20 3
17 -3 30 2 40 14 9 11 12 12 8 4 -6 -12 -5 -13 7 -4 8 6 24 10 36 9 12 -1 20
2 18 6 -6 8 56 32 63 24 3 -3 0 -5 -6 -5 -7 0 -12 -11 -12 -25 0 -14 -4 -25
-10 -25 -5 0 -10 -9 -10 -20 0 -20 -4 -30 -29 -79 -10 -19 -10 -22 1 -15 11 6
11 5 0 -8 -7 -9 -14 -32 -15 -51 -1 -19 -5 -33 -9 -30 -8 4 -10 -13 -11 -82 0
-16 -5 -33 -11 -37 -7 -6 -6 -11 4 -18 10 -6 11 -10 3 -10 -8 0 -12 -13 -11
-33 1 -19 -2 -39 -6 -45 -4 -7 -3 -12 2 -12 6 0 8 -9 5 -20 -3 -11 0 -20 6
-20 6 0 11 -9 11 -20 0 -11 7 -20 15 -20 8 0 15 -3 15 -7 0 -14 82 -14 98 -1
13 11 14 11 7 -2 -6 -12 -5 -13 6 -2 7 6 21 12 31 12 10 0 18 5 18 11 0 5 5 7
10 4 6 -3 10 -1 10 5 0 6 4 9 9 6 5 -3 12 1 15 10 4 9 9 14 12 11 7 -6 25 9
112 94 73 72 122 126 122 134 0 3 9 15 20 27 10 12 17 24 15 28 -3 5 2 10 10
14 11 4 15 -2 15 -20 0 -16 4 -23 11 -18 7 4 7 -1 -1 -16 -8 -15 -8 -20 -1
-16 10 7 13 -7 14 -71 0 -13 3 -23 6 -23 6 0 12 -33 14 -82 1 -9 5 -14 9 -12
7 4 13 -35 9 -58 0 -5 4 -8 10 -8 5 0 7 -4 4 -10 -3 -5 -1 -10 6 -10 7 0 9 -3
6 -6 -3 -4 -1 -16 5 -28 7 -11 13 -23 13 -26 1 -3 8 -18 15 -35 7 -16 12 -34
11 -40 -2 -5 1 -7 5 -3 4 5 15 -5 25 -21 30 -50 53 -71 76 -71 22 0 95 38 101
52 2 5 7 6 11 3 5 -2 17 13 27 35 10 22 26 40 34 41 11 0 11 2 2 6 -8 3 -10 9
-4 16 5 7 15 30 22 52 7 22 16 45 20 50 4 6 6 18 5 28 -2 9 1 17 6 17 6 0 7 5
4 10 -4 6 -1 17 5 25 7 8 10 22 6 30 -3 8 -2 15 2 15 4 0 8 10 9 23 1 12 5 48
9 80 6 57 7 58 25 38 11 -11 19 -25 19 -31 0 -6 5 -8 10 -5 6 3 10 1 10 -4 0
-13 25 -45 62 -79 15 -14 25 -29 22 -33 -3 -5 0 -9 5 -9 6 0 19 -8 29 -18 41
-39 78 -69 95 -75 9 -3 17 -11 17 -16 0 -11 87 -61 107 -61 8 0 12 -4 9 -9 -9
-13 57 -8 72 6 7 7 18 16 25 20 16 11 37 49 37 68 0 8 6 15 13 15 9 0 9 2 0 8
-8 5 -9 13 -3 22 5 9 5 19 -1 26 -7 8 -6 14 1 19 8 5 7 11 -2 23 -10 12 -10
14 0 8 6 -4 12 -2 12 3 0 6 -4 11 -9 11 -5 0 -9 15 -9 33 0 17 -3 43 -7 57 -4
14 -9 39 -12 55 -3 17 -9 35 -14 41 -5 6 -10 23 -11 37 -1 14 -6 23 -10 21 -4
-3 -8 6 -8 20 0 14 -5 28 -10 31 -6 4 -8 11 -5 16 4 5 1 9 -5 9 -7 0 -10 7 -6
15 3 8 2 15 -2 15 -4 0 -18 21 -31 48 -14 26 -33 56 -43 68 -15 17 -15 21 -4
21 8 0 13 -4 10 -8 -3 -5 4 -14 15 -20 11 -7 17 -19 13 -27 -4 -11 -1 -13 9
-7 8 4 11 5 7 0 -8 -8 33 -45 51 -45 6 0 11 -4 11 -9 0 -5 6 -9 13 -8 30 1 48
-4 43 -12 -3 -4 5 -8 17 -7 12 1 31 -4 42 -11 11 -7 32 -13 47 -13 16 0 28 -5
28 -11 0 -6 7 -9 15 -5 8 3 15 0 15 -7 0 -8 3 -8 9 2 6 10 10 10 16 1 4 -6 13
-9 21 -6 8 3 14 1 14 -5 0 -6 3 -8 8 -6 4 3 28 2 55 -3 26 -4 47 -3 47 2 0 5
5 6 10 3 6 -4 7 -12 3 -18 -4 -8 -1 -7 9 1 12 9 18 10 23 2 5 -8 11 -8 19 -1
7 6 27 12 45 13 18 1 36 8 38 15 3 7 9 11 13 8 5 -3 12 5 16 17 10 31 5 132
-7 136 -5 2 -9 11 -9 21 0 9 -9 27 -20 39 -11 12 -20 25 -20 31 0 5 -7 12 -16
15 -9 4 -14 9 -11 13 4 3 -5 14 -18 25 -14 11 -22 25 -18 31 3 7 3 9 -2 5 -4
-4 -29 14 -55 40 -89 89 -170 139 -203 126 -8 -3 -17 -2 -20 3 -3 4 23 9 56
10 66 2 116 9 125 17 3 3 12 0 20 -7 13 -9 14 -9 8 1 -7 11 19 18 48 13 5 -1
12 2 15 8 4 5 18 11 33 13 15 2 30 7 34 11 4 4 18 7 31 7 12 0 23 5 23 11 0 5
5 7 10 4 6 -3 10 -2 10 4 0 5 9 8 20 6 13 -2 20 2 20 11 0 8 4 13 9 10 12 -8
83 28 74 38 -4 4 0 4 9 1 20 -8 63 49 54 71 -3 8 -2 12 4 9 13 -8 13 -3 -2 32
-6 15 -12 31 -12 35 -1 3 -13 17 -28 31 -15 14 -24 28 -21 31 4 3 -3 6 -15 6
-12 0 -22 5 -22 10 0 6 -6 10 -14 10 -7 0 -26 10 -42 22 -15 13 -24 16 -19 8
7 -12 6 -13 -6 -4 -14 11 -63 27 -85 29 -6 0 -18 5 -25 11 -8 6 -27 11 -43 12
-17 1 -32 5 -35 10 -3 4 -33 9 -66 10 -33 2 -63 9 -67 15 -5 8 -8 7 -8 -3 -1
-11 -4 -10 -15 4 -14 18 -15 18 -15 2 0 -9 -4 -15 -10 -11 -15 9 -2 29 30 48
16 10 33 19 36 20 4 1 29 23 57 50 27 26 54 47 60 47 6 0 8 3 4 6 -8 8 18 34
33 34 6 0 8 5 5 10 -3 6 -2 10 3 10 5 0 14 12 20 26 7 14 16 23 21 20 5 -3 12
6 15 19 4 14 11 23 16 20 6 -3 11 -1 11 4 1 6 2 15 3 19 0 5 9 16 19 26 9 10
17 24 17 32 0 8 6 17 14 20 8 3 12 13 9 25 -3 10 1 27 8 36 10 12 10 14 2 9
-9 -5 -13 0 -13 14 0 23 -24 53 -34 43 -3 -4 -6 -1 -6 5 0 7 -7 12 -15 12 -8
0 -15 4 -15 9 0 5 -11 8 -25 6 -14 -1 -25 1 -25 4 0 3 -18 6 -40 6 -22 0 -40
-3 -40 -6 0 -3 -18 -4 -40 -3 -22 1 -40 -3 -40 -8 0 -6 -8 -4 -17 3 -9 8 -14
9 -10 3 4 -7 -6 -12 -26 -13 -18 -2 -40 -3 -49 -4 -10 -1 -18 -7 -18 -13 0 -7
-8 -10 -19 -7 -10 2 -25 -3 -34 -11 -18 -18 -31 -21 -21 -5 3 6 -4 4 -17 -4
-13 -9 -33 -17 -44 -19 -11 -2 -25 -9 -31 -17 -6 -8 -16 -11 -22 -7 -8 5 -5
17 8 41 11 19 17 35 13 35 -4 0 -2 5 4 11 6 6 9 18 6 27 -4 9 -2 13 4 9 9 -6
19 21 25 71 1 6 5 12 9 12 4 0 7 10 7 23 0 20 8 62 12 62 1 0 3 14 4 30 1 17
6 37 11 44 6 10 4 12 -6 6 -11 -7 -12 -6 -2 6 10 12 10 18 0 29 -9 10 -9 11 1
6 15 -9 17 109 2 119 -6 4 -8 9 -6 13 6 10 -15 34 -41 49 -15 9 -24 9 -28 2
-5 -7 -11 -7 -19 0 -9 7 -17 7 -26 -2 -10 -10 -11 -9 -5 1 6 11 3 12 -14 3
-11 -7 -21 -9 -21 -5 0 3 -7 0 -17 -7 -9 -8 -19 -13 -22 -13 -3 1 -15 -2 -26
-7 -11 -4 -15 -8 -10 -9 6 0 -5 -7 -22 -15 -18 -8 -33 -19 -33 -25 0 -5 -5
-10 -11 -10 -6 0 -24 -13 -41 -30 -16 -16 -34 -30 -40 -30 -6 0 -9 -3 -5 -6 3
-3 -6 -18 -21 -33 -46 -47 -82 -90 -82 -101 0 -5 -9 -14 -20 -20 -11 -6 -18
-15 -15 -21 4 -5 1 -9 -5 -9 -6 0 -9 -4 -6 -9 3 -5 0 -11 -7 -14 -9 -3 -12 4
-11 24 1 16 -3 29 -9 29 -7 0 -5 5 3 10 8 5 10 10 5 10 -11 0 -16 20 -18 82
-1 20 -5 34 -9 31 -5 -2 -8 11 -8 29 0 19 -4 38 -10 44 -5 5 -10 24 -12 42 -1
19 -7 36 -12 39 -5 4 -6 1 -1 -7 6 -9 4 -11 -4 -6 -7 5 -10 15 -7 23 3 8 -1
24 -9 37 -8 12 -12 26 -8 29 3 4 1 7 -5 7 -7 0 -12 11 -12 24 0 13 -7 26 -15
30 -8 3 -15 10 -15 16 0 6 -12 27 -26 46 -22 28 -29 32 -41 22 -11 -9 -13 -8
-11 3 2 9 -7 15 -24 17 -16 2 -28 -1 -28 -7z m-170 -301 c0 -5 -5 -10 -11 -10
-5 0 -7 5 -4 10 3 6 8 10 11 10 2 0 4 -4 4 -10z m-5 -280 c3 -6 -1 -7 -9 -4
-18 7 -21 14 -7 14 6 0 13 -4 16 -10z m12 -45 c0 -8 -4 -12 -9 -9 -5 3 -6 10
-3 15 9 13 12 11 12 -6z m423 1 c0 -3 -4 -8 -10 -11 -5 -3 -10 -1 -10 4 0 6 5
11 10 11 6 0 10 -2 10 -4z m-395 -46 c3 -5 2 -10 -4 -10 -5 0 -13 5 -16 10 -3
6 -2 10 4 10 5 0 13 -4 16 -10z m16 -62 c-11 -11 -13 -10 -8 3 3 9 1 22 -4 28
-5 6 -1 4 8 -4 14 -12 15 -17 4 -27z m22 -33 c-8 -22 -22 -18 -16 5 3 11 9 17
14 15 4 -3 6 -12 2 -20z m21 -54 c-8 -9 -22 12 -17 26 6 15 7 14 13 -3 4 -10
6 -21 4 -23z m793 -16 c0 -8 -4 -12 -9 -9 -4 3 -8 0 -8 -7 0 -7 -3 -9 -6 -6
-4 4 -1 13 6 22 15 19 17 19 17 0z m-790 -1 c-3 -3 -12 -4 -19 -1 -8 3 -5 6 6
6 11 1 17 -2 13 -5z m20 -42 c0 -10 -7 -19 -13 -19 -9 0 -10 5 -3 19 5 10 12
18 14 18 2 0 3 -8 2 -18z m194 -35 c-10 -9 -11 -8 -5 6 3 10 9 15 12 12 3 -3
0 -11 -7 -18z m522 -17 c-10 -11 -19 -20 -21 -20 -1 0 2 9 8 20 6 11 15 20 20
20 6 0 2 -9 -7 -20z m-695 -30 c0 -16 -2 -32 -6 -34 -4 -2 -8 11 -8 30 0 19 3
34 6 34 4 0 7 -13 8 -30z m159 -42 c-3 -7 -5 -2 -5 12 0 14 2 19 5 13 2 -7 2
-19 0 -25z m510 26 c-3 -3 -12 -4 -19 -1 -8 3 -5 6 6 6 11 1 17 -2 13 -5z
m-1127 -48 c0 -3 -4 -8 -10 -11 -5 -3 -10 -1 -10 4 0 6 5 11 10 11 6 0 10 -2
10 -4z m475 -55 c-1 -28 3 -51 8 -51 5 0 4 -6 -2 -13 -6 -8 -7 -18 -3 -22 4
-5 1 -5 -6 -1 -7 4 -10 12 -6 17 3 5 0 17 -8 26 -7 9 -8 14 -2 10 8 -4 10 9 8
43 -1 28 1 48 4 46 4 -2 7 -27 7 -55z m127 37 c-8 -8 -9 -15 -1 -25 9 -9 8
-13 0 -13 -7 0 -9 -5 -5 -12 4 -6 3 -8 -3 -5 -16 10 -4 67 15 67 3 0 1 -5 -6
-12z m430 -45 c-6 -2 -10 -9 -7 -13 3 -5 1 -11 -4 -14 -7 -5 -8 11 -2 32 1 1
7 2 14 1 9 0 9 -2 -1 -6z m-944 -38 c-3 -3 -9 2 -12 12 -6 14 -5 15 5 6 7 -7
10 -15 7 -18z m912 -6 c0 -5 -4 -7 -10 -4 -5 3 -10 1 -10 -6 0 -7 -3 -10 -6
-6 -8 7 4 27 17 27 5 0 9 -5 9 -11z m-35 -28 c3 -5 1 -12 -5 -16 -5 -3 -10 1
-10 9 0 18 6 21 15 7z m-37 -33 c-9 -13 -24 -24 -34 -25 -14 -2 -15 -1 -4 4 8
3 21 14 28 25 19 26 27 22 10 -4z m-1338 -12 c0 -11 -19 -15 -25 -6 -3 5 1 10
9 10 9 0 16 -2 16 -4z m40 -6 c0 -5 -5 -10 -11 -10 -5 0 -7 5 -4 10 3 6 8 10
11 10 2 0 4 -4 4 -10z m40 6 c0 -3 -4 -8 -10 -11 -5 -3 -10 -1 -10 4 0 6 5 11
10 11 6 0 10 -2 10 -4z m40 -8 c0 -4 -4 -8 -9 -8 -6 0 -12 4 -15 8 -3 5 1 9 9
9 8 0 15 -4 15 -9z m110 -14 c0 -8 -19 -13 -24 -6 -3 5 1 9 9 9 8 0 15 -2 15
-3z m682 -64 c7 -14 21 -34 31 -45 17 -19 18 -19 11 -1 -5 12 -4 17 3 13 6 -4
19 3 29 16 13 15 14 18 3 9 -14 -10 -13 -6 3 28 22 45 33 53 18 15 -5 -14 -6
-25 -2 -25 4 0 7 -22 6 -50 0 -35 3 -50 13 -50 7 0 13 5 13 10 0 5 3 9 8 9 4
-1 9 0 12 1 3 1 13 3 22 5 16 3 16 1 3 -26 -9 -16 -12 -29 -8 -29 5 0 1 -5 -7
-11 -11 -8 -12 -12 -2 -16 6 -2 10 -8 8 -12 -3 -4 4 -7 14 -7 10 0 16 4 14 8
-3 4 0 8 5 8 6 0 11 -6 11 -12 0 -9 4 -8 10 2 6 9 10 10 10 3 0 -22 -12 -43
-25 -43 -7 0 -18 -7 -25 -15 -7 -8 -15 -13 -19 -11 -4 3 -7 -4 -7 -15 0 -10 8
-22 18 -25 10 -3 18 -10 18 -15 0 -6 4 -8 9 -5 4 3 16 0 25 -7 15 -11 13 -13
-18 -13 -21 0 -32 4 -29 11 3 5 0 5 -7 -2 -7 -6 -19 -9 -26 -6 -8 3 -14 0 -14
-7 0 -6 -5 -8 -10 -5 -6 4 -1 -11 11 -32 12 -21 26 -41 32 -45 6 -4 8 -10 4
-15 -5 -4 -11 -3 -15 3 -11 16 -81 46 -100 42 -9 -2 -18 -10 -18 -18 -1 -8 -2
-21 -3 -27 -2 -24 -21 -13 -38 22 -19 40 -28 43 -43 15 -6 -11 -14 -18 -18
-16 -5 3 -9 -5 -9 -17 -1 -12 -7 -23 -13 -25 -5 -2 -7 -9 -4 -14 4 -7 2 -8 -5
-4 -9 6 -9 11 -1 21 8 10 8 15 0 20 -8 5 -8 11 1 21 6 8 7 14 2 14 -5 0 -10
12 -11 26 -3 40 -13 50 -29 29 -7 -11 -13 -15 -13 -9 0 5 -4 4 -8 -3 -5 -8
-13 -9 -22 -3 -11 7 -12 10 -2 10 7 0 10 5 7 10 -3 6 -1 10 5 10 6 0 9 4 5 9
-3 5 -1 12 5 16 15 9 12 32 -6 39 -8 3 -12 2 -9 -4 3 -5 -3 -8 -14 -7 -11 0
-17 5 -15 9 7 11 -4 10 -26 -2 -13 -7 -21 -7 -26 2 -4 7 -3 8 4 4 7 -4 12 -2
12 5 0 7 3 10 6 6 4 -3 20 7 37 24 16 17 36 28 43 25 8 -3 11 0 8 9 -3 8 -14
17 -24 20 -10 3 -24 13 -31 23 -7 9 -9 14 -4 9 4 -4 17 1 28 10 11 10 17 12
12 4 -6 -10 -2 -12 16 -6 27 8 49 25 33 25 -6 0 -11 6 -11 13 0 6 -2 17 -3 22
-5 19 0 35 10 35 6 0 10 -7 10 -16 0 -8 4 -12 10 -9 5 3 19 1 30 -5 14 -8 20
-8 20 0 0 6 4 9 9 6 4 -3 7 20 5 52 -4 61 -2 61 38 -18z m383 52 c-3 -3 -11 0
-18 7 -9 10 -8 11 6 5 10 -3 15 -9 12 -12z m-929 -9 c-3 -4 -17 -8 -29 -10
-17 -2 -19 -1 -7 7 17 11 47 14 36 3z m314 -3 c0 -5 -5 -10 -11 -10 -5 0 -7 5
-4 10 3 6 8 10 11 10 2 0 4 -4 4 -10z m560 -22 c-13 -13 -19 -16 -15 -8 14 25
28 41 32 36 3 -3 -5 -15 -17 -28z m-796 0 c-3 -4 -9 -8 -15 -8 -5 0 -9 4 -9 8
0 5 7 9 15 9 8 0 12 -4 9 -9z m1230 4 c3 -5 -1 -9 -9 -9 -8 0 -12 4 -9 9 3 4
7 8 9 8 2 0 6 -4 9 -8z m151 -2 c3 -5 1 -10 -4 -10 -6 0 -11 5 -11 10 0 6 2
10 4 10 3 0 8 -4 11 -10z m-1095 -6 c0 -8 -19 -13 -24 -6 -3 5 1 9 9 9 8 0 15
-2 15 -3z m-255 -14 c3 -5 1 -10 -4 -10 -6 0 -11 5 -11 10 0 6 2 10 4 10 3 0
8 -4 11 -10z m280 1 c3 -5 1 -12 -5 -16 -5 -3 -10 1 -10 9 0 18 6 21 15 7z
m789 1 c3 -5 -1 -9 -9 -9 -8 0 -12 4 -9 9 3 4 7 8 9 8 2 0 6 -4 9 -8z m-367
-28 c-3 -3 -12 -4 -19 -1 -8 3 -5 6 6 6 11 1 17 -2 13 -5z m-583 -12 c2 -4 -5
-9 -17 -9 -17 -2 -19 0 -7 7 18 12 18 12 24 2z m806 -1 c0 -6 -4 -12 -8 -15
-5 -3 -9 1 -9 9 0 8 4 15 9 15 4 0 8 -4 8 -9z m-260 -5 c0 -3 -4 -8 -10 -11
-5 -3 -10 -1 -10 4 0 6 5 11 10 11 6 0 10 -2 10 -4z m-496 -204 c3 -5 -1 -9
-9 -9 -8 0 -12 4 -9 9 3 4 7 8 9 8 2 0 6 -4 9 -8z m-27 -28 c-3 -3 -12 -4 -19
-1 -8 3 -5 6 6 6 11 1 17 -2 13 -5z m-44 -19 c-3 -9 -8 -14 -10 -11 -3 3 -2 9
2 15 9 16 15 13 8 -4z m-33 -20 c0 -12 -19 -12 -23 0 -4 9 -1 12 9 8 7 -3 14
-7 14 -8z m-40 -9 c0 -2 -7 -7 -16 -10 -8 -3 -12 -2 -9 4 6 10 25 14 25 6z
m720 -12 c0 -2 -9 -4 -20 -4 -11 0 -20 4 -20 9 0 5 9 7 20 4 11 -3 20 -7 20
-9z m40 -29 c0 -2 -9 -3 -19 -2 -11 0 -18 5 -15 9 4 6 34 0 34 -7z m-910 -15
c0 -5 -5 -10 -11 -10 -5 0 -7 5 -4 10 3 6 8 10 11 10 2 0 4 -4 4 -10z m30 0
c0 -5 -4 -10 -10 -10 -5 0 -10 5 -10 10 0 6 5 10 10 10 6 0 10 -4 10 -10z
m910 2 c0 -5 -7 -9 -15 -9 -8 0 -12 4 -9 9 3 4 9 8 15 8 5 0 9 -4 9 -8z
m-1015 -12 c-3 -5 1 -10 10 -10 9 0 13 4 10 10 -3 6 1 7 9 4 9 -3 13 -10 10
-15 -6 -11 -35 -12 -60 -2 -16 6 -16 7 2 14 26 10 26 10 19 -1z m1085 -5 c0
-7 -30 -13 -34 -7 -3 4 4 9 15 9 10 1 19 0 19 -2z m-1138 -17 c-15 -15 -42
-19 -42 -6 0 6 7 8 15 5 8 -4 17 -2 20 3 4 6 9 10 13 10 3 0 1 -5 -6 -12z
m-158 -9 c3 -3 -10 -5 -29 -5 -19 0 -35 3 -35 7 0 8 56 6 64 -2z m36 7 c0 -3
-4 -8 -10 -11 -5 -3 -10 -1 -10 4 0 6 5 11 10 11 6 0 10 -2 10 -4z m50 -6 c0
-4 -7 -7 -15 -6 -23 3 -26 12 -5 13 11 1 20 -2 20 -7z m1254 1 c-8 -8 -34 -10
-38 -2 -3 4 6 7 19 7 14 0 22 -2 19 -5z m-449 -21 c3 -5 1 -10 -4 -10 -6 0
-11 5 -11 10 0 6 2 10 4 10 3 0 8 -4 11 -10z m205 6 c0 -3 -4 -8 -10 -11 -5
-3 -10 -1 -10 4 0 6 5 11 10 11 6 0 10 -2 10 -4z m300 -6 c0 -5 -4 -10 -10
-10 -5 0 -10 5 -10 10 0 6 5 10 10 10 6 0 10 -4 10 -10z m94 -31 c-3 -5 -10
-7 -15 -3 -5 3 -7 10 -3 15 3 5 10 7 15 3 5 -3 7 -10 3 -15z m66 11 c0 -5 -5
-10 -11 -10 -5 0 -7 5 -4 10 3 6 8 10 11 10 2 0 4 -4 4 -10z m140 -22 c0 -4
-9 -7 -20 -5 -29 5 -33 13 -5 13 14 0 25 -4 25 -8z m-940 -18 c0 -5 -2 -10 -4
-10 -3 0 -8 5 -11 10 -3 6 -1 10 4 10 6 0 11 -4 11 -10z m3 -35 c4 -8 3 -16
-1 -19 -4 -3 -9 4 -9 15 -2 23 3 25 10 4z m0 -56 c3 -12 1 -19 -5 -17 -13 5
-20 38 -8 38 4 0 10 -9 13 -21z m541 -7 c3 -5 -1 -9 -9 -9 -8 0 -12 4 -9 9 3
4 7 8 9 8 2 0 6 -4 9 -8z m-416 -27 c-3 -3 -9 2 -12 12 -6 14 -5 15 5 6 7 -7
10 -15 7 -18z m-124 -10 c-4 -8 -11 -15 -16 -15 -6 0 -5 6 2 15 7 8 14 15 16
15 2 0 1 -7 -2 -15z m563 0 c0 -8 -4 -12 -9 -9 -5 3 -6 10 -3 15 9 13 12 11
12 -6z m-581 -100 c1 -8 -5 -15 -13 -15 -12 0 -13 3 -4 13 7 9 7 18 1 25 -7 9
-7 9 2 2 6 -5 13 -17 14 -25z m669 5 c-3 -6 1 -13 9 -16 9 -3 13 -10 11 -15
-3 -4 -14 -1 -23 9 -12 11 -14 20 -8 24 15 11 18 10 11 -2z m-690 -81 c11 -16
1 -19 -13 -3 -7 8 -8 14 -3 14 5 0 13 -5 16 -11z m202 -11 c-3 -8 -6 -5 -6 6
-1 11 2 17 5 13 3 -3 4 -12 1 -19z m-222 -52 c0 -15 -4 -21 -9 -16 -5 5 -6 16
-3 24 9 22 12 20 12 -8z m246 -13 c13 -16 12 -17 -3 -4 -17 13 -22 21 -14 21
2 0 10 -8 17 -17z m-271 -53 c0 -5 -4 -10 -10 -10 -5 0 -10 5 -10 10 0 6 5 10
10 10 6 0 10 -4 10 -10z m-23 -52 c-3 -8 -6 -5 -6 6 -1 11 2 17 5 13 3 -3 4
-12 1 -19z m-17 -18 c0 -5 -5 -10 -11 -10 -5 0 -7 5 -4 10 3 6 8 10 11 10 2 0
4 -4 4 -10z m-20 -50 c0 -5 -5 -10 -11 -10 -5 0 -7 5 -4 10 3 6 8 10 11 10 2
0 4 -4 4 -10z m414 -6 c3 -8 2 -12 -4 -9 -6 3 -10 10 -10 16 0 14 7 11 14 -7z
m-434 -34 c0 -5 -5 -10 -11 -10 -5 0 -7 5 -4 10 3 6 8 10 11 10 2 0 4 -4 4
-10z m454 -6 c3 -8 2 -12 -4 -9 -6 3 -10 10 -10 16 0 14 7 11 14 -7z"/>
<path d="M1470 1720 c0 -5 5 -10 11 -10 5 0 7 5 4 10 -3 6 -8 10 -11 10 -2 0
-4 -4 -4 -10z"/>
</g>
</svg>
